# xmcd
#
# Track frame offsets:
#	150
#	102863
#	123341
#	183070
#	217616
#	244578
#	262301
#	286557
#	314641
#
# Disc length: 4398 seconds
#
# Revision: 0
# Processed by: cddbd v1.5.2PL0 Copyright (c) Steve Scherf et al.
# Submitted via: EZCDAudioConverter 1.3.4.1
#
DISCID=76112c09
DTITLE=Tangerine Dream - Ride On The Ray 1/2
DYEAR=2011
DGENRE=
TTITLE0=Quichotte II
TTITLE1=White Eagle
TTITLE2=Bondi Parade
TTITLE3=Warsaw In The Sun (Part 1 and 2)
TTITLE4=Polish Dance
TTITLE5=Rare Bird
TTITLE6=Bois De Boulogne (Paris)
TTITLE7=Yellowstone Park (Rocky Mountains)
TTITLE8=Le Parc (L.A. Streethawk)
EXTD=
EXTT0=
EXTT1=
EXTT2=
EXTT3=
EXTT4=
EXTT5=
EXTT6=
EXTT7=
EXTT8=
PLAYORDER=
